<svg width="32" height="32" viewBox="0 0 32 32" fill="none" xmlns="http://www.w3.org/2000/svg">
<path d="M25.9371 21.6689C25.5918 22.4755 25.1653 23.2448 24.6641 23.9649C24.1909 24.6864 23.6392 25.3532 23.0191 25.9529C22.4554 26.5164 21.7013 26.8485 20.9051 26.8839C20.2303 26.8545 19.5674 26.6963 18.9521 26.4179C18.2887 26.1287 17.5755 25.9708 16.8521 25.9529C16.1082 25.9677 15.3742 26.1255 14.6901 26.4179C14.0991 26.6846 13.4677 26.8505 12.8221 26.9089C12.4157 26.9043 12.0146 26.8172 11.6429 26.6529C11.2713 26.4885 10.9369 26.2504 10.6601 25.9529C10.0131 25.332 9.43632 24.6418 8.94006 23.8949C8.16205 22.7825 7.54716 21.5645 7.11406 20.2779C6.62299 18.8968 6.36481 17.4437 6.35006 15.9779C6.31099 14.5375 6.66833 13.1141 7.38306 11.8629C7.90325 10.9582 8.64831 10.2031 9.54606 9.67094C10.4308 9.14169 11.4402 8.85698 12.4711 8.84594C13.2494 8.89194 14.0143 9.0698 14.7331 9.37194C15.3058 9.62444 15.9088 9.8019 16.5271 9.89994C17.209 9.75765 17.8755 9.54934 18.5171 9.27794C19.3733 8.92997 20.2933 8.76641 21.2171 8.79794C22.0986 8.82059 22.9631 9.04599 23.7435 9.45664C24.5239 9.8673 25.1992 10.4522 25.7171 11.1659C24.896 11.602 24.2129 12.2583 23.7442 13.0612C23.2756 13.864 23.04 14.7816 23.0641 15.7109C23.0551 16.4213 23.1972 17.1255 23.481 17.7769C23.7648 18.4282 24.1837 19.0118 24.7101 19.4889C25.1878 19.9461 25.7454 20.3118 26.3551 20.5679C26.2244 20.9506 26.0851 21.3176 25.9371 21.6689ZM21.3541 3.63494C21.338 4.86359 20.876 6.04454 20.0541 6.95794C19.6331 7.53437 19.0789 8.0004 18.4388 8.31627C17.7987 8.63214 17.0917 8.78848 16.3781 8.77194C16.3596 8.62265 16.3502 8.47237 16.3501 8.32194C16.3914 7.07319 16.8805 5.88097 17.7281 4.96294C18.1982 4.43531 18.7691 4.00693 19.4071 3.70294C20.0044 3.39443 20.6577 3.20942 21.3281 3.15894C21.3451 3.31669 21.3535 3.47526 21.3531 3.63394L21.3541 3.63494Z" fill="#0F0F0F"/>
</svg>
