<svg width="24" height="24" viewBox="0 0 24 24" fill="none" xmlns="http://www.w3.org/2000/svg">
<path opacity="0.3" fill-rule="evenodd" clip-rule="evenodd" d="M10.5831 11.9955L8.46179 14.1168C8.27425 14.3043 8.16889 14.5587 8.16889 14.8239C8.16889 15.0891 8.27425 15.3435 8.46179 15.531C8.64932 15.7185 8.90368 15.8239 9.16889 15.8239C9.43411 15.8239 9.68846 15.7185 9.876 15.531L11.9973 13.4097L12.7044 14.1168C13.0795 14.4919 13.2902 15.0006 13.2902 15.531C13.2902 16.0614 13.0795 16.5701 12.7044 16.9452L9.876 19.7736C9.50093 20.1487 8.99222 20.3594 8.46179 20.3594C7.93135 20.3594 7.42265 20.1487 7.04757 19.7736L4.21915 16.9452C3.84407 16.5701 3.63336 16.0614 3.63336 15.531C3.63336 15.0006 3.84407 14.4919 4.21915 14.1168L7.04757 11.2884C7.42265 10.9133 7.93135 10.7026 8.46179 10.7026C8.99222 10.7026 9.50093 10.9133 9.876 11.2884L10.5831 11.9955Z" fill="#373737"/>
<path fill-rule="evenodd" clip-rule="evenodd" d="M13.4115 11.9955L15.5328 9.87421C15.7204 9.68668 15.8257 9.43232 15.8257 9.16711C15.8257 8.90189 15.7204 8.64754 15.5328 8.46C15.3453 8.27246 15.0909 8.16711 14.8257 8.16711C14.5605 8.16711 14.3062 8.27246 14.1186 8.46L11.9973 10.5813L11.2902 9.87421C10.9151 9.49914 10.7044 8.99043 10.7044 8.46C10.7044 7.92957 10.9151 7.42086 11.2902 7.04579L14.1186 4.21736C14.4937 3.84229 15.0024 3.63157 15.5328 3.63157C16.0633 3.63157 16.572 3.84229 16.947 4.21736L19.7755 7.04579C20.1505 7.42086 20.3613 7.92957 20.3613 8.46C20.3613 8.99043 20.1505 9.49914 19.7755 9.87421L16.947 12.7026C16.572 13.0777 16.0633 13.2884 15.5328 13.2884C15.0024 13.2884 14.4937 13.0777 14.1186 12.7026L13.4115 11.9955Z" fill="#373737"/>
</svg>
