<svg width="24" height="24" viewBox="0 0 24 24" fill="none" xmlns="http://www.w3.org/2000/svg">
<path d="M13.8333 5.75121V4.83121C13.8333 3.81921 13.0133 2.99121 11.9933 2.99121C10.9803 2.99121 10.1533 3.81121 10.1533 4.82121V5.73121" stroke="white" stroke-width="1.5" stroke-linecap="round" stroke-linejoin="round"/>
<path d="M6.56322 10.1801C6.56322 7.67714 8.58322 5.64014 11.0932 5.64014H12.9032C15.4062 5.64014 17.4332 7.66914 17.4332 10.1701V12.9601C17.4332 13.4901 17.6432 13.9901 18.0132 14.3701L18.6532 15.0111C19.0282 15.3861 19.2332 15.8911 19.2332 16.4211C19.2332 17.4611 18.3832 18.3111 17.3432 18.3111H6.61022C5.56022 18.3111 4.72021 17.4611 4.72021 16.4211C4.72021 15.8911 4.93022 15.3811 5.30022 15.0011L5.94122 14.3601C6.31622 13.9851 6.52121 13.4701 6.52121 12.9401L6.52022 10.1401L6.56322 10.1801Z" stroke="white" stroke-width="1.5" stroke-linecap="round" stroke-linejoin="round"/>
<path d="M13.6004 21H10.4004" stroke="white" stroke-width="1.5" stroke-linecap="round" stroke-linejoin="round"/>
</svg>
