<svg width="24" height="24" viewBox="0 0 24 24" fill="none" xmlns="http://www.w3.org/2000/svg">
<path fill-rule="evenodd" clip-rule="evenodd" d="M7.34009 19V4.8H12.6801C13.7982 4.80369 14.8694 5.24948 15.66 6.04009C16.4506 6.83069 16.8964 7.90192 16.9001 9.02C16.9066 9.47312 16.8213 9.92288 16.6495 10.3422C16.4776 10.7615 16.2227 11.1417 15.9001 11.46C16.5112 11.7702 17.0228 12.246 17.3764 12.8331C17.73 13.4201 17.9115 14.0948 17.9001 14.78C17.8976 15.3402 17.7842 15.8944 17.5662 16.4106C17.3482 16.9267 17.0301 17.3945 16.6303 17.7869C16.2304 18.1793 15.7567 18.4886 15.2366 18.6968C14.7165 18.905 14.1603 19.0081 13.6001 19H7.34009ZM10.5401 16.06H13.3001C13.4902 16.0693 13.6802 16.0401 13.8587 15.974C14.0372 15.908 14.2005 15.8065 14.3388 15.6757C14.477 15.5449 14.5874 15.3875 14.6632 15.213C14.7391 15.0384 14.7788 14.8503 14.7801 14.66C14.7793 14.4686 14.74 14.2794 14.6646 14.1036C14.5892 13.9277 14.4791 13.7688 14.3411 13.6363C14.203 13.5038 14.0397 13.4005 13.8608 13.3324C13.682 13.2643 13.4913 13.2329 13.3001 13.24H10.5401V16.06ZM10.5401 10.54H12.3201C12.5102 10.5493 12.7002 10.5201 12.8787 10.454C13.0572 10.388 13.2205 10.2865 13.3588 10.1557C13.497 10.0249 13.6074 9.86753 13.6832 9.69298C13.7591 9.51842 13.7988 9.33032 13.8001 9.14C13.7993 8.94865 13.76 8.75941 13.6846 8.58355C13.6092 8.40769 13.4991 8.24879 13.3611 8.11632C13.223 7.98384 13.0597 7.88048 12.8808 7.8124C12.702 7.74431 12.5113 7.71289 12.3201 7.72H10.5401V10.54Z" fill="#373737"/>
</svg>
