<svg width="24" height="24" viewBox="0 0 24 24" fill="none" xmlns="http://www.w3.org/2000/svg">
<path fill-rule="evenodd" clip-rule="evenodd" d="M10.5 5H19.5C19.8978 5 20.2794 5.15804 20.5607 5.43934C20.842 5.72064 21 6.10218 21 6.5C21 6.89782 20.842 7.27936 20.5607 7.56066C20.2794 7.84196 19.8978 8 19.5 8H10.5C10.1022 8 9.72064 7.84196 9.43934 7.56066C9.15804 7.27936 9 6.89782 9 6.5C9 6.10218 9.15804 5.72064 9.43934 5.43934C9.72064 5.15804 10.1022 5 10.5 5ZM10.5 10H19.5C19.8978 10 20.2794 10.158 20.5607 10.4393C20.842 10.7206 21 11.1022 21 11.5C21 11.8978 20.842 12.2794 20.5607 12.5607C20.2794 12.842 19.8978 13 19.5 13H10.5C10.1022 13 9.72064 12.842 9.43934 12.5607C9.15804 12.2794 9 11.8978 9 11.5C9 11.1022 9.15804 10.7206 9.43934 10.4393C9.72064 10.158 10.1022 10 10.5 10ZM10.5 15H19.5C19.8978 15 20.2794 15.158 20.5607 15.4393C20.842 15.7206 21 16.1022 21 16.5C21 16.8978 20.842 17.2794 20.5607 17.5607C20.2794 17.842 19.8978 18 19.5 18H10.5C10.1022 18 9.72064 17.842 9.43934 17.5607C9.15804 17.2794 9 16.8978 9 16.5C9 16.1022 9.15804 15.7206 9.43934 15.4393C9.72064 15.158 10.1022 15 10.5 15Z" fill="#373737"/>
<path opacity="0.3" fill-rule="evenodd" clip-rule="evenodd" d="M5.5 8C5.20333 8 4.91332 7.91203 4.66665 7.74721C4.41997 7.58238 4.22771 7.34811 4.11418 7.07403C4.00065 6.79994 3.97094 6.49834 4.02882 6.20737C4.0867 5.91639 4.22956 5.64912 4.43934 5.43934C4.64912 5.22956 4.91639 5.0867 5.20737 5.02882C5.49834 4.97094 5.79994 5.00065 6.07403 5.11418C6.34811 5.22771 6.58238 5.41997 6.74721 5.66665C6.91203 5.91332 7 6.20333 7 6.5C7 6.89783 6.84197 7.27936 6.56066 7.56066C6.27936 7.84197 5.89783 8 5.5 8ZM5.5 13C5.20333 13 4.91332 12.912 4.66665 12.7472C4.41997 12.5824 4.22771 12.3481 4.11418 12.074C4.00065 11.7999 3.97094 11.4983 4.02882 11.2074C4.0867 10.9164 4.22956 10.6491 4.43934 10.4393C4.64912 10.2296 4.91639 10.0867 5.20737 10.0288C5.49834 9.97094 5.79994 10.0006 6.07403 10.1142C6.34811 10.2277 6.58238 10.42 6.74721 10.6666C6.91203 10.9133 7 11.2033 7 11.5C7 11.8978 6.84197 12.2794 6.56066 12.5607C6.27936 12.842 5.89783 13 5.5 13ZM5.5 18C5.20333 18 4.91332 17.912 4.66665 17.7472C4.41997 17.5824 4.22771 17.3481 4.11418 17.074C4.00065 16.7999 3.97094 16.4983 4.02882 16.2074C4.0867 15.9164 4.22956 15.6491 4.43934 15.4393C4.64912 15.2296 4.91639 15.0867 5.20737 15.0288C5.49834 14.9709 5.79994 15.0007 6.07403 15.1142C6.34811 15.2277 6.58238 15.42 6.74721 15.6666C6.91203 15.9133 7 16.2033 7 16.5C7 16.8978 6.84197 17.2794 6.56066 17.5607C6.27936 17.842 5.89783 18 5.5 18Z" fill="#373737"/>
</svg>
