<svg width="24" height="24" viewBox="0 0 24 24" fill="none" xmlns="http://www.w3.org/2000/svg">
<path d="M14 20.765C12.0964 21.2012 10.1025 21.0064 8.31936 20.2099C6.53619 19.4135 5.06048 18.0586 4.11494 16.3498C3.1694 14.641 2.80534 12.671 3.07772 10.7372C3.35009 8.80331 4.24411 7.01051 5.62486 5.62936C7.0056 4.24821 8.79813 3.35366 10.7319 3.08071C12.6657 2.80777 14.6358 3.17124 16.3449 4.11628C18.0539 5.06131 19.4092 6.53662 20.2062 8.31955C21.0032 10.1025 21.1986 12.0963 20.763 14" stroke="#E12927" stroke-width="1.5" stroke-linecap="round" stroke-linejoin="round"/>
<path d="M17.25 19.25H21.25" stroke="#E12927" stroke-width="1.5" stroke-linecap="round" stroke-linejoin="round"/>
<path d="M19.25 21.25V17.25" stroke="#E12927" stroke-width="1.5" stroke-linecap="round" stroke-linejoin="round"/>
<path d="M11.718 7.98499V12.636L15.374 14.865" stroke="#E12927" stroke-width="1.5" stroke-linecap="round" stroke-linejoin="round"/>
</svg>
