<svg width="24" height="24" viewBox="0 0 24 24" fill="none" xmlns="http://www.w3.org/2000/svg">
<path d="M19.6319 16.833H4.36792C3.83749 16.833 3.32878 16.6223 2.95371 16.2472C2.57863 15.8722 2.36792 15.3634 2.36792 14.833V5.06201C2.36792 4.53158 2.57863 4.02287 2.95371 3.6478C3.32878 3.27273 3.83749 3.06201 4.36792 3.06201H19.6309C20.1614 3.06201 20.6701 3.27273 21.0451 3.6478C21.4202 4.02287 21.6309 4.53158 21.6309 5.06201V14.834C21.6307 15.3641 21.42 15.8724 21.0451 16.2472C20.6703 16.6221 20.162 16.8327 19.6319 16.833Z" stroke="#D7DCDE" stroke-width="1.5" stroke-linecap="round" stroke-linejoin="round"/>
<path d="M4.98511 21C9.56713 19.667 14.4341 19.667 19.0161 21" stroke="#D7DCDE" stroke-width="1.5" stroke-linecap="round" stroke-linejoin="round"/>
</svg>
