<svg width="32" height="32" viewBox="0 0 32 32" fill="none" xmlns="http://www.w3.org/2000/svg">
<path d="M27 0H5C2.23858 0 0 2.23858 0 5V27C0 29.7614 2.23858 32 5 32H27C29.7614 32 32 29.7614 32 27V5C32 2.23858 29.7614 0 27 0Z" fill="white"/>
<path d="M9 11H23" stroke="#E62128" stroke-width="1.5" stroke-linecap="round" stroke-linejoin="round"/>
<path d="M22.0001 11V22.846C22.0198 23.3967 21.8204 23.9327 21.4454 24.3365C21.0705 24.7403 20.5507 24.9789 20.0001 25H12.0001C11.4495 24.9789 10.9297 24.7403 10.5548 24.3365C10.1799 23.9327 9.98038 23.3967 10.0001 22.846V11" stroke="#E62128" stroke-width="1.5" stroke-linecap="round" stroke-linejoin="round"/>
<path d="M19 7.75H13" stroke="#E62128" stroke-width="1.5" stroke-linecap="round" stroke-linejoin="round"/>
<path d="M14 15V21" stroke="#E62128" stroke-width="1.5" stroke-linecap="round" stroke-linejoin="round"/>
<path d="M18 15V21" stroke="#E62128" stroke-width="1.5" stroke-linecap="round" stroke-linejoin="round"/>
</svg>
