<svg width="32" height="32" viewBox="0 0 32 32" fill="none" xmlns="http://www.w3.org/2000/svg">
<path d="M28.2939 16.174C28.2926 13.8557 27.627 11.5863 26.3761 9.63443C25.1252 7.68257 23.3412 6.12995 21.2354 5.16035C19.1296 4.19075 16.7901 3.84475 14.4937 4.16332C12.1974 4.48188 10.0404 5.45167 8.27806 6.9579C6.51571 8.46412 5.22178 10.4437 4.54942 12.6624C3.87706 14.8811 3.85443 17.2459 4.48419 19.4771C5.11394 21.7082 6.36974 23.7122 8.10293 25.2519C9.83612 26.7916 11.9741 27.8025 14.2639 28.165V19.681H11.183V16.174H14.2639V13.501C14.2639 10.46 16.0759 8.78001 18.8469 8.78001C19.7568 8.79267 20.6646 8.87188 21.563 9.01701V12.003H20.033C19.7723 11.9685 19.5072 11.9931 19.2573 12.0749C19.0074 12.1567 18.7791 12.2937 18.5893 12.4756C18.3994 12.6576 18.2529 12.8799 18.1606 13.1261C18.0683 13.3723 18.0325 13.6361 18.0559 13.898V16.174H21.421L20.883 19.681H18.0559V28.165C20.9108 27.713 23.5106 26.2568 25.3875 24.0586C27.2643 21.8604 28.295 19.0645 28.2939 16.174Z" fill="#1878F3"/>
</svg>
