<svg width="32" height="32" viewBox="0 0 32 32" fill="none" xmlns="http://www.w3.org/2000/svg">
<path fill-rule="evenodd" clip-rule="evenodd" d="M27.556 16.6499C27.5566 15.8951 27.4897 15.1418 27.356 14.3989H16.99V18.6559H22.913C22.79 19.3297 22.5317 19.9714 22.1535 20.5424C21.7754 21.1134 21.2853 21.6018 20.713 21.9779V24.7379H24.27C25.3537 23.6952 26.2063 22.4364 26.7724 21.0431C27.3385 19.6498 27.6054 18.153 27.556 16.6499Z" fill="#4285F4"/>
<path fill-rule="evenodd" clip-rule="evenodd" d="M16.992 27.4069C19.6711 27.4797 22.2768 26.526 24.276 24.7409L20.719 21.9789C19.8681 22.5252 18.9036 22.8699 17.8991 22.9868C16.8947 23.1036 15.8769 22.9895 14.9232 22.6531C13.9696 22.3168 13.1054 21.767 12.3966 21.0459C11.6877 20.3247 11.1529 19.4512 10.833 18.4919H7.15601V21.3429C8.07169 23.1666 9.4766 24.6996 11.2136 25.7705C12.9507 26.8414 14.9514 27.408 16.992 27.4069Z" fill="#34A853"/>
<path fill-rule="evenodd" clip-rule="evenodd" d="M10.834 18.4919C10.3738 17.1359 10.3738 15.6659 10.834 14.3099V11.4579H7.15698C6.38727 12.9918 5.98645 14.6842 5.98645 16.4004C5.98645 18.1166 6.38727 19.809 7.15698 21.3429L10.834 18.4919Z" fill="#FBBC05"/>
<path fill-rule="evenodd" clip-rule="evenodd" d="M16.992 9.77094C18.5561 9.74451 20.0677 10.3355 21.199 11.4159L24.356 8.25894C22.3639 6.38784 19.7249 5.3604 16.992 5.39194C14.9514 5.39089 12.9507 5.9575 11.2136 7.02841C9.4766 8.09931 8.07169 9.6323 7.15601 11.4559L10.833 14.3079C11.256 13.0024 12.0777 11.8625 13.1826 11.0486C14.2875 10.2347 15.6198 9.78783 16.992 9.77094Z" fill="#EA4335"/>
</svg>
