<svg width="26" height="25" viewBox="0 0 26 25" fill="none" xmlns="http://www.w3.org/2000/svg">
<path d="M13.001 24.9616C10.2208 24.9643 7.52587 24.0029 5.37539 22.2409C3.22491 20.4789 1.752 18.0259 1.20791 15.2995C0.663815 12.5731 1.08221 9.74224 2.39162 7.28975C3.70104 4.83725 5.82049 2.915 8.38869 1.85029C10.9569 0.785582 13.8148 0.643257 16.4754 1.4499C19.1359 2.25655 21.4345 3.96053 22.979 6.27217C24.5236 8.58381 25.2186 11.3609 24.9456 14.1276C24.6726 16.8944 23.4485 19.4808 21.482 21.446C20.3708 22.5635 19.0493 23.4499 17.5935 24.0534C16.1378 24.6569 14.5769 24.9652 13.001 24.9616ZM13.001 6.09053C11.125 6.09053 10.8839 6.09064 10.1489 6.12764C9.5754 6.1425 9.00835 6.25284 8.47097 6.45381C8.0114 6.63083 7.59378 6.90127 7.24477 7.24873C6.89576 7.59619 6.62305 8.01261 6.44399 8.47139C6.24602 9.0115 6.13755 9.57991 6.12295 10.155C6.08895 10.923 6.08095 11.1995 6.08095 13.0085C6.08095 14.8855 6.08095 15.1251 6.12295 15.8601C6.13719 16.4352 6.24567 17.0036 6.44399 17.5437C6.623 18.0025 6.89575 18.4188 7.24477 18.7663C7.59379 19.1138 8.01137 19.3843 8.47097 19.5612C9.00621 19.7729 9.57373 19.8908 10.1489 19.9108C10.9089 19.9458 11.176 19.948 13.001 19.948C14.877 19.948 15.118 19.9478 15.853 19.9108C16.4269 19.8987 16.9944 19.7883 17.531 19.5847C17.9906 19.4086 18.4081 19.1393 18.7564 18.7917C19.1047 18.4441 19.3761 18.0263 19.553 17.5671C19.7539 17.0278 19.8625 16.4589 19.874 15.8835C19.907 15.1565 19.916 14.9389 19.916 13.0319C19.916 11.1549 19.916 10.9154 19.874 10.1804C19.8648 9.59727 19.7562 9.01997 19.553 8.47334C19.3752 8.01381 19.103 7.59636 18.7538 7.24873C18.4046 6.90111 17.9863 6.62953 17.526 6.45381C16.99 6.25299 16.4242 6.1446 15.8519 6.12959C15.1009 6.09359 14.83 6.09053 13.001 6.09053ZM13.001 16.5573C12.2985 16.5569 11.6118 16.3483 11.0279 15.9577C10.4439 15.5672 9.98878 15.0131 9.72011 14.364C9.45144 13.7148 9.38117 13.0003 9.51833 12.3112C9.65549 11.6222 9.99384 10.9896 10.4906 10.4929C10.9874 9.9961 11.6203 9.65737 12.3093 9.52022C12.9984 9.38306 13.7126 9.45272 14.3617 9.72139C15.0109 9.99006 15.5658 10.446 15.9563 11.03C16.3469 11.614 16.5557 12.3001 16.5561 13.0026C16.5561 13.9458 16.1816 14.8509 15.515 15.5183C14.8485 16.1856 13.9442 16.5602 13.001 16.5612V16.5573ZM13.001 11.0026C12.6054 11.0026 12.2188 11.1208 11.8899 11.3405C11.561 11.5603 11.3046 11.8716 11.1532 12.237C11.0018 12.6025 10.9623 13.0053 11.0394 13.3933C11.1166 13.7812 11.3071 14.137 11.5868 14.4167C11.8665 14.6964 12.2229 14.8864 12.6109 14.9636C12.9988 15.0407 13.4009 15.0017 13.7664 14.8503C14.1318 14.6989 14.4442 14.4429 14.664 14.114C14.8837 13.7851 15.001 13.3982 15.001 13.0026C15.001 12.4722 14.7903 11.9636 14.4152 11.5886C14.0401 11.2135 13.5314 11.0026 13.001 11.0026ZM16.692 10.1452C16.5277 10.1452 16.3671 10.096 16.2305 10.0046C16.0939 9.91321 15.9875 9.78344 15.9248 9.63154C15.8621 9.47965 15.8458 9.31414 15.8782 9.15303C15.9105 8.99191 15.9901 8.84316 16.1066 8.72725C16.2231 8.61133 16.3712 8.53226 16.5325 8.50068C16.6938 8.46911 16.8608 8.48608 17.0124 8.54951C17.1639 8.61295 17.2933 8.72109 17.3841 8.85811C17.4748 8.99512 17.5228 9.15472 17.522 9.31904C17.5212 9.53873 17.4332 9.7501 17.2774 9.90498C17.1216 10.0599 16.9106 10.1457 16.6909 10.1452H16.692Z" fill="white" fill-opacity="0.7"/>
</svg>
