<svg width="24" height="24" viewBox="0 0 24 24" fill="none" xmlns="http://www.w3.org/2000/svg">
<path d="M19.111 10H4.88895C4.63883 9.98428 4.40505 9.87036 4.23854 9.68306C4.07202 9.49576 3.98627 9.25024 3.99995 9V6C3.98627 5.74976 4.07202 5.50424 4.23854 5.31694C4.40505 5.12964 4.63883 5.01572 4.88895 5H19.111C19.3611 5.01572 19.5949 5.12964 19.7614 5.31694C19.9279 5.50424 20.0136 5.74976 20 6V9C20.0136 9.25024 19.9279 9.49576 19.7614 9.68306C19.5949 9.87036 19.3611 9.98428 19.111 10Z" stroke="#D7DCDE" stroke-width="1.5" stroke-linecap="round" stroke-linejoin="round"/>
<path d="M19.111 19H4.88895C4.63883 18.9843 4.40505 18.8704 4.23854 18.6831C4.07202 18.4958 3.98627 18.2502 3.99995 18V15C3.98627 14.7498 4.07202 14.5042 4.23854 14.3169C4.40505 14.1296 4.63883 14.0157 4.88895 14H19.111C19.3611 14.0157 19.5949 14.1296 19.7614 14.3169C19.9279 14.5042 20.0136 14.7498 20 15V18C20.0136 18.2502 19.9279 18.4958 19.7614 18.6831C19.5949 18.8704 19.3611 18.9843 19.111 19Z" stroke="#D7DCDE" stroke-width="1.5" stroke-linecap="round" stroke-linejoin="round"/>
</svg>
