<svg width="24" height="24" viewBox="0 0 24 24" fill="none" xmlns="http://www.w3.org/2000/svg">
<path d="M6.944 19H5.056C4.466 19 4 18.52 4 17.94V10.55C4 9.95999 4.47 9.48999 5.056 9.48999H6.944C7.524 9.48999 8 9.95999 8 10.54V17.92C8 18.5 7.52 18.97 6.944 18.97V19Z" stroke="#333333" stroke-width="1.5" stroke-linecap="round" stroke-linejoin="round"/>
<path d="M7.99994 10.57L11.6399 5.81904C12.3099 4.92904 13.6399 4.91204 14.3499 5.76904C14.6099 6.08904 14.7499 6.48904 14.7499 6.91004V10.18H17.8459C18.4459 10.18 19.0059 10.48 19.3359 10.97L19.6559 11.46C19.9459 11.9 20.0359 12.45 19.8859 12.95L18.5259 17.67C18.2959 18.44 17.5959 18.97 16.7959 18.97H10.4999C9.99994 18.97 9.51994 18.76 9.17994 18.39L7.93994 17.06" stroke="#333333" stroke-width="1.5" stroke-linecap="round" stroke-linejoin="round"/>
</svg>
