<svg width="138" height="25" viewBox="0 0 138 25" fill="none" xmlns="http://www.w3.org/2000/svg">
<path d="M132.893 0.000760621C133.565 -0.00928923 134.233 0.118634 134.854 0.376628C135.475 0.634623 136.037 1.01721 136.504 1.50076C136.987 1.96861 137.368 2.53039 137.625 3.15145C137.883 3.77251 138.01 4.43967 137.999 5.11176C138.011 5.78665 137.884 6.45676 137.627 7.08087C137.37 7.70497 136.988 8.26986 136.504 8.74076C136.037 9.22431 135.475 9.6069 134.854 9.86489C134.233 10.1229 133.565 10.2508 132.893 10.2408C132.217 10.2524 131.546 10.1252 130.921 9.86726C130.296 9.60926 129.73 9.22587 129.259 8.74076C128.775 8.26902 128.393 7.70321 128.137 7.07821C127.88 6.45321 127.754 5.78227 127.767 5.10676C127.756 4.43467 127.883 3.76751 128.141 3.14645C128.398 2.52539 128.779 1.96361 129.262 1.49576C129.733 1.01193 130.298 0.629679 130.923 0.372566C131.547 0.115453 132.218 -0.0110809 132.893 0.000760621ZM132.893 9.24676C133.431 9.25333 133.965 9.14963 134.461 8.94204C134.957 8.73445 135.406 8.42738 135.779 8.03976C136.17 7.65949 136.479 7.20313 136.687 6.69885C136.894 6.19458 136.997 5.65308 136.987 5.10776C136.995 4.56591 136.892 4.02815 136.684 3.52765C136.477 3.02716 136.168 2.57455 135.779 2.19776C135.406 1.80996 134.957 1.5027 134.461 1.29494C133.965 1.08718 133.431 0.983316 132.893 0.989761C132.353 0.980603 131.816 1.08307 131.317 1.29076C130.818 1.49845 130.367 1.80688 129.993 2.19676C129.606 2.57491 129.3 3.02795 129.093 3.52826C128.887 4.02856 128.785 4.56565 128.793 5.10676C128.784 5.65134 128.885 6.19215 129.091 6.69622C129.298 7.2003 129.604 7.65709 129.993 8.03876C130.367 8.42883 130.818 8.73744 131.317 8.9453C131.816 9.15316 132.352 9.25579 132.893 9.24676ZM134.181 5.17576V5.22176C134.407 5.24033 134.621 5.33425 134.788 5.48851C134.955 5.64278 135.065 5.84848 135.101 6.07276L135.653 7.72876H134.112L133.675 6.11876C133.622 5.9813 133.527 5.86451 133.402 5.78576C133.278 5.70702 133.132 5.67054 132.985 5.68176H132.042V7.72876H130.616V2.36976C131.122 2.32376 131.935 2.30076 133.054 2.30076C133.683 2.25206 134.315 2.37111 134.883 2.64576C135.074 2.78743 135.224 2.97669 135.319 3.19464C135.414 3.41259 135.45 3.65159 135.423 3.88776C135.438 4.05669 135.416 4.22683 135.36 4.38671C135.303 4.54659 135.213 4.69248 135.095 4.81455C134.978 4.93662 134.835 5.03203 134.677 5.09434C134.52 5.15665 134.35 5.18442 134.181 5.17576ZM132.042 4.73876H133.008C133.276 4.75295 133.543 4.69346 133.779 4.56676C133.852 4.49839 133.908 4.41387 133.943 4.31994C133.978 4.22602 133.99 4.12528 133.979 4.02576C133.992 3.92447 133.981 3.8215 133.946 3.72547C133.911 3.62944 133.854 3.54313 133.779 3.47376C133.539 3.35859 133.273 3.31088 133.008 3.33576H132.042V4.73876Z" fill="white"/>
<path d="M97.5989 10.2241C94.8379 9.36906 94.1849 8.84206 94.1849 8.01306C94.1849 6.85606 95.4649 6.35401 96.8699 6.37701C98.1499 6.40301 99.5809 7.00506 99.8069 8.11206L102.77 7.00604C102.27 4.49304 99.5319 3.06006 96.8469 3.06006C92.3299 3.06006 90.6469 5.82506 90.6469 8.13806C90.6469 10.7261 92.3029 12.2601 96.3469 13.4661C99.2079 14.3211 100.061 14.773 100.061 15.829C100.061 16.91 98.9609 17.7141 96.9239 17.7141C95.0909 17.7141 93.5599 16.8841 93.2339 15.5521L90.1709 16.735C90.6709 19.274 93.7849 21.1091 97.2229 21.1091C101.59 21.1091 103.623 18.62 103.623 15.709C103.623 12.436 101.062 11.2821 97.5989 10.2241Z" fill="white"/>
<path d="M119.793 3.21094L114.247 12.111L108.747 3.21094H105.639V20.8059H108.977V9.72192L113.269 16.6589H115.252L119.545 9.72192V20.8069H122.881V3.21191L119.793 3.21094Z" fill="white"/>
<path d="M79.821 3.21094L73.396 20.8059H77.186L78.541 16.8339L79.67 13.6419L81.528 8.24194L83.386 13.6419H81.774L80.732 16.8339H84.49L85.87 20.8059H89.66L83.235 3.21094H79.821Z" fill="white"/>
<path d="M8.50798 6.40493C9.35774 6.37506 10.2002 6.57099 10.9496 6.97274C11.699 7.37448 12.3285 7.96773 12.774 8.69198L15.788 7.17898C15.0604 5.89827 13.9994 4.83862 12.7177 4.11281C11.4359 3.387 9.98151 3.02214 8.50897 3.05697C3.46297 3.05697 0.000976562 6.97896 0.000976562 12.031C0.000976562 17.083 3.46397 21.003 8.50897 21.003C9.98062 21.0323 11.433 20.665 12.7138 19.9395C13.9945 19.2141 15.0564 18.1572 15.788 16.88L12.776 15.372C12.3288 16.0929 11.6983 16.6822 10.9488 17.0797C10.1993 17.4771 9.35765 17.6684 8.50998 17.6339C5.32198 17.6339 3.40997 15.221 3.40997 12.034C3.41297 8.81696 5.31998 6.40493 8.50798 6.40493Z" fill="white"/>
<path d="M43.7149 14.2709C44.7454 13.8397 45.6184 13.102 46.2155 12.1579C46.8127 11.2138 47.105 10.1088 47.0529 8.99292C47.0529 5.77592 44.8689 3.21094 40.9529 3.21094H34.4529V20.8059H37.7909V14.7739H40.2249L43.7129 20.8069H47.4779L43.7149 14.2709ZM40.8799 11.5819H37.7929V6.42896H40.8799C41.2295 6.41072 41.5792 6.46383 41.9077 6.58508C42.2361 6.70633 42.5365 6.89317 42.7904 7.13422C43.0443 7.37526 43.2466 7.66548 43.3848 7.98718C43.523 8.30888 43.5942 8.65531 43.5942 9.00543C43.5942 9.35556 43.523 9.70204 43.3848 10.0237C43.2466 10.3454 43.0443 10.6356 42.7904 10.8766C42.5365 11.1177 42.2361 11.3045 41.9077 11.4258C41.5792 11.547 41.2295 11.6001 40.8799 11.5819Z" fill="white"/>
<path d="M22.9741 3.21094L16.5491 20.8059H20.3391L21.6941 16.8339L22.8231 13.6419L24.6811 8.24194L26.5381 13.6419H24.9291L23.8871 16.8339H27.6431L29.0231 20.8059H32.8141L26.3891 3.21094H22.9741Z" fill="white"/>
<path d="M66.4599 12.085C66.4583 13.1055 66.1543 14.1027 65.5862 14.9505C65.018 15.7983 64.2113 16.4587 63.268 16.8482C62.3247 17.2377 61.2871 17.3389 60.2863 17.1389C59.2856 16.9389 58.3665 16.4467 57.6454 15.7246C56.9242 15.0024 56.4333 14.0827 56.2347 13.0817C56.036 12.0806 56.1386 11.0432 56.5293 10.1004C56.9201 9.15763 57.5816 8.35183 58.4302 7.78486C59.2788 7.21788 60.2764 6.91519 61.2969 6.91499V3.52198C59.6028 3.51961 57.9461 4.01977 56.5363 4.95924C55.1266 5.89871 54.0272 7.23522 53.3772 8.79969C52.7273 10.3642 52.5559 12.0863 52.885 13.7482C53.214 15.41 54.0286 16.9369 55.2257 18.1357C56.4228 19.3344 57.9486 20.1512 59.6099 20.4826C61.2713 20.8139 62.9937 20.645 64.5591 19.9973C66.1245 19.3495 67.4625 18.252 68.404 16.8436C69.3454 15.4351 69.8479 13.7791 69.8479 12.085H66.4599Z" fill="#E62128"/>
<path d="M61.297 12.085V15.433H69.169C68.5626 16.8537 67.5827 18.0835 66.3334 18.9921C65.0842 19.9006 63.6122 20.4539 62.0738 20.5932C60.5354 20.7324 58.988 20.4524 57.5959 19.7829C56.2038 19.1134 55.019 18.0795 54.1674 16.7908C53.3157 15.5021 52.8288 14.0069 52.7586 12.4638C52.6884 10.9207 53.0374 9.38733 53.7685 8.02662C54.4997 6.66592 55.5857 5.52862 56.9112 4.73549C58.2367 3.94236 59.7523 3.52303 61.297 3.52198V0.167981C58.9393 0.164618 56.6337 0.860693 54.6717 2.1681C52.7097 3.47551 51.1796 5.33546 50.275 7.51271C49.3705 9.68996 49.1321 12.0866 49.59 14.3994C50.0479 16.7122 51.1815 18.8372 52.8474 20.5055C54.5134 22.1738 56.6367 23.3105 58.9489 23.7717C61.261 24.2329 63.658 23.9979 65.8365 23.0964C68.0151 22.195 69.8773 20.6676 71.1875 18.7075C72.4977 16.7474 73.197 14.4427 73.197 12.085H61.297Z" fill="white"/>
<path d="M73.197 3.21094H66.479V9.93894H73.197V3.21094Z" fill="#E62128"/>
<path d="M70.1579 0.167969H63.4399V6.89597H70.1579V0.167969Z" fill="white"/>
</svg>
