<svg width="24" height="24" viewBox="0 0 24 24" fill="none" xmlns="http://www.w3.org/2000/svg">
<path fill-rule="evenodd" clip-rule="evenodd" d="M19 21H5C4.46957 21 3.96086 20.7893 3.58579 20.4142C3.21071 20.0391 3 19.5304 3 19V5C3 4.46957 3.21071 3.96086 3.58579 3.58579C3.96086 3.21071 4.46957 3 5 3H19C19.5304 3 20.0391 3.21071 20.4142 3.58579C20.7893 3.96086 21 4.46957 21 5V19C21 19.5304 20.7893 20.0391 20.4142 20.4142C20.0391 20.7893 19.5304 21 19 21Z" stroke="#333333" stroke-width="1.5" stroke-linecap="round" stroke-linejoin="round"/>
<path d="M3 15H7.382C7.56766 15.0001 7.74963 15.0519 7.90753 15.1496C8.06542 15.2472 8.19301 15.3869 8.276 15.553L8.723 16.447C8.80644 16.614 8.93497 16.7543 9.09402 16.852C9.25308 16.9498 9.43632 17.001 9.623 17H14.387C14.5727 16.9999 14.7546 16.9481 14.9125 16.8505C15.0704 16.7528 15.198 16.6131 15.281 16.447L15.728 15.553C15.8114 15.386 15.94 15.2457 16.099 15.148C16.2581 15.0503 16.4413 14.999 16.628 15H21" stroke="#333333" stroke-width="1.5" stroke-linecap="round" stroke-linejoin="round"/>
<path d="M7 7H17" stroke="#333333" stroke-width="1.5" stroke-linecap="round" stroke-linejoin="round"/>
<path d="M7 11H17" stroke="#333333" stroke-width="1.5" stroke-linecap="round" stroke-linejoin="round"/>
</svg>
