<svg width="20" height="21" viewBox="0 0 20 21" fill="none" xmlns="http://www.w3.org/2000/svg">
<path d="M14 1V5" stroke="#E62128" stroke-width="1.5" stroke-linecap="round" stroke-linejoin="round"/>
<path d="M6 1V5" stroke="#E62128" stroke-width="1.5" stroke-linecap="round" stroke-linejoin="round"/>
<path d="M1 8H19" stroke="#E62128" stroke-width="1.5" stroke-linecap="round" stroke-linejoin="round"/>
<path d="M17 3H3C2.46957 3 1.96086 3.21071 1.58579 3.58579C1.21071 3.96086 1 4.46957 1 5V18C1 18.5304 1.21071 19.0391 1.58579 19.4142C1.96086 19.7893 2.46957 20 3 20H17C17.5304 20 18.0391 19.7893 18.4142 19.4142C18.7893 19.0391 19 18.5304 19 18V5C19 4.46957 18.7893 3.96086 18.4142 3.58579C18.0391 3.21071 17.5304 3 17 3V3Z" stroke="#E62128" stroke-width="1.5" stroke-linecap="round" stroke-linejoin="round"/>
<path d="M5 12H15" stroke="#E62128" stroke-width="1.5" stroke-linecap="round" stroke-linejoin="round"/>
<path d="M5 16H15" stroke="#E62128" stroke-width="1.5" stroke-linecap="round" stroke-linejoin="round"/>
</svg>
