<svg width="16" height="14" viewBox="0 0 16 14" fill="none" xmlns="http://www.w3.org/2000/svg">
<path d="M14.3562 0.64502H1.64515C1.22495 0.646608 0.822525 0.814785 0.526144 1.11267C0.229763 1.41055 0.0636197 1.81381 0.0641522 2.23402L0.0561523 11.767C0.0574709 12.188 0.225306 12.5914 0.523016 12.8892C0.820726 13.1869 1.22413 13.3547 1.64515 13.356H14.3562C14.7772 13.3547 15.1806 13.1869 15.4783 12.8892C15.776 12.5914 15.9438 12.188 15.9452 11.767V2.23402C15.9438 1.813 15.776 1.40959 15.4783 1.11188C15.1806 0.814174 14.7772 0.646338 14.3562 0.64502ZM14.3562 3.82302L8.00015 7.79502L1.64515 3.82302V2.23402L8.00015 6.20602L14.3562 2.23402V3.82302Z" fill="white" fill-opacity="0.7"/>
</svg>
