<svg width="24" height="24" viewBox="0 0 24 24" fill="none" xmlns="http://www.w3.org/2000/svg">
<path d="M16.333 3H4.667C4.22488 3 3.80088 3.17563 3.48825 3.48825C3.17563 3.80088 3 4.22488 3 4.667V13" stroke="#D7DCDE" stroke-width="1.5" stroke-miterlimit="10" stroke-linecap="round" stroke-linejoin="round"/>
<path d="M13.5 21L15.167 17.667H19.334C19.7759 17.6667 20.1997 17.491 20.5121 17.1784C20.8245 16.8658 21 16.4419 21 16V7.667C21 7.22488 20.8244 6.80088 20.5117 6.48825C20.1991 6.17563 19.7751 6 19.333 6H7.667C7.22488 6 6.80088 6.17563 6.48825 6.48825C6.17563 6.80088 6 7.22488 6 7.667V16C6 16.4421 6.17563 16.8661 6.48825 17.1787C6.80088 17.4914 7.22488 17.667 7.667 17.667H11" stroke="#D7DCDE" stroke-width="1.5" stroke-miterlimit="10" stroke-linecap="round" stroke-linejoin="round"/>
<path d="M10 10H17" stroke="#D7DCDE" stroke-width="1.5" stroke-miterlimit="10" stroke-linecap="round" stroke-linejoin="round"/>
<path d="M10 14H14" stroke="#D7DCDE" stroke-width="1.5" stroke-miterlimit="10" stroke-linecap="round" stroke-linejoin="round"/>
</svg>
