<svg width="24" height="24" viewBox="0 0 24 24" fill="none" xmlns="http://www.w3.org/2000/svg">
<path d="M20 15.5H18C17.4696 15.5 16.9609 15.2893 16.5858 14.9142C16.2107 14.5391 16 14.0304 16 13.5C16 12.9696 16.2107 12.4609 16.5858 12.0858C16.9609 11.7107 17.4696 11.5 18 11.5H20C20.2652 11.5 20.5196 11.6054 20.7071 11.7929C20.8946 11.9804 21 12.2348 21 12.5V14.5C21 14.7652 20.8946 15.0196 20.7071 15.2071C20.5196 15.3946 20.2652 15.5 20 15.5Z" stroke="#D7DCDE" stroke-width="1.5" stroke-linecap="round" stroke-linejoin="round"/>
<path d="M20 11.5V8.5C20 7.96957 19.7893 7.46086 19.4142 7.08579C19.0391 6.71071 18.5304 6.5 18 6.5H4.5C4.10218 6.5 3.72064 6.34196 3.43934 6.06066C3.15804 5.77936 3 5.39782 3 5C3 4.60218 3.15804 4.22064 3.43934 3.93934C3.72064 3.65804 4.10218 3.5 4.5 3.5H17" stroke="#D7DCDE" stroke-width="1.5" stroke-linecap="round" stroke-linejoin="round"/>
<path d="M20 15.5V18.5C20 19.0304 19.7893 19.5391 19.4142 19.9142C19.0391 20.2893 18.5304 20.5 18 20.5H5C4.46957 20.5 3.96086 20.2893 3.58579 19.9142C3.21071 19.5391 3 19.0304 3 18.5V5" stroke="#D7DCDE" stroke-width="1.5" stroke-linecap="round" stroke-linejoin="round"/>
</svg>
