<svg width="16" height="16" viewBox="0 0 16 16" fill="none" xmlns="http://www.w3.org/2000/svg">
<path d="M3.84584 7.16484C4.99959 9.42089 6.83479 11.2561 9.09085 12.4098L10.8418 10.6588C10.946 10.5545 11.0771 10.4814 11.2206 10.4476C11.3641 10.4139 11.5141 10.4209 11.6538 10.4678C12.5707 10.7692 13.5297 10.9225 14.4948 10.9218C14.5999 10.9218 14.7039 10.9425 14.801 10.9827C14.8981 11.0229 14.9862 11.0819 15.0605 11.1562C15.1348 11.2304 15.1937 11.3186 15.2339 11.4157C15.2742 11.5128 15.2948 11.6168 15.2948 11.7218V14.4998C15.2948 14.6049 15.2742 14.7089 15.2339 14.806C15.1937 14.9031 15.1348 14.9912 15.0605 15.0655C14.9862 15.1398 14.8981 15.1987 14.801 15.2389C14.7039 15.2792 14.5999 15.2998 14.4948 15.2998C12.7176 15.2998 10.9578 14.9497 9.31598 14.2695C7.67412 13.5892 6.18236 12.5921 4.92592 11.3352C3.66948 10.0783 2.67297 8.5862 1.99332 6.94409C1.31367 5.30197 0.964188 3.54205 0.964845 1.76484C0.964845 1.55267 1.04913 1.34919 1.19916 1.19916C1.34919 1.04913 1.55267 0.964844 1.76484 0.964844H4.54684C4.75902 0.964844 4.9625 1.04913 5.11253 1.19916C5.26256 1.34919 5.34684 1.55267 5.34684 1.76484C5.34558 2.73 5.49885 3.68914 5.80084 4.60584C5.84565 4.74647 5.85069 4.89675 5.81539 5.04006C5.78009 5.18337 5.70584 5.31412 5.60084 5.41784L3.84584 7.16484Z" fill="white" fill-opacity="0.7"/>
</svg>
