<svg width="24" height="24" viewBox="0 0 24 24" fill="none" xmlns="http://www.w3.org/2000/svg">
<path d="M12 21C7.029 21 3 16.971 3 12C3 7.029 7.029 3 12 3C16.971 3 21 7.029 21 12C21 16.971 16.971 21 12 21Z" stroke="#868E96" stroke-width="1.5" stroke-linecap="round" stroke-linejoin="round"/>
<path d="M11.9994 13V12.7696C11.9994 12.0151 12.5044 11.6067 13.0105 11.2929C13.5047 10.9858 14 10.5851 14 9.84621C14 8.82573 13.1045 8 12.0006 8C10.8967 8 10 8.82462 10 9.84509" stroke="#868E96" stroke-width="1.5" stroke-linecap="round" stroke-linejoin="round"/>
<path d="M11.898 15.832C11.815 15.832 11.748 15.899 11.749 15.982C11.749 16.065 11.816 16.132 11.899 16.132C11.982 16.132 12.049 16.065 12.049 15.982C12.049 15.899 11.983 15.832 11.898 15.832" stroke="#868E96" stroke-width="1.5" stroke-linecap="round" stroke-linejoin="round"/>
</svg>
