<svg width="24" height="24" viewBox="0 0 24 24" fill="none" xmlns="http://www.w3.org/2000/svg">
<path d="M14.121 9.87898C14.5405 10.2986 14.8262 10.8331 14.9419 11.415C15.0576 11.997 14.9982 12.6001 14.7711 13.1483C14.544 13.6964 14.1595 14.1649 13.6662 14.4946C13.1728 14.8242 12.5928 15.0001 11.9995 15.0001C11.4062 15.0001 10.8262 14.8242 10.3329 14.4946C9.83952 14.1649 9.455 13.6964 9.22792 13.1483C9.00085 12.6001 8.94141 11.997 9.05712 11.415C9.17283 10.8331 9.45851 10.2986 9.87801 9.87898C10.1566 9.60035 10.4873 9.37933 10.8513 9.22853C11.2154 9.07774 11.6055 9.00012 11.9995 9.00012C12.3935 9.00012 12.7837 9.07774 13.1477 9.22853C13.5117 9.37933 13.8424 9.60035 14.121 9.87898" stroke="#D7DCDE" stroke-width="1.5" stroke-linecap="round" stroke-linejoin="round"/>
<path d="M16.18 18.725C16.4219 18.9665 16.7497 19.1022 17.0915 19.1022C17.4333 19.1022 17.7611 18.9665 18.003 18.725L18.725 18C18.9665 17.7581 19.1022 17.4303 19.1022 17.0885C19.1022 16.7467 18.9665 16.4189 18.725 16.177C18.5383 15.9907 18.4115 15.7528 18.3609 15.4939C18.3103 15.235 18.3382 14.9669 18.441 14.724C18.463 14.671 18.485 14.618 18.506 14.564C18.5966 14.3369 18.7536 14.1423 18.9564 14.0057C19.1592 13.869 19.3985 13.7967 19.643 13.798H19.71C20.0515 13.7983 20.3792 13.663 20.621 13.4219C20.8629 13.1808 20.9992 12.8535 21 12.512V11.491C21.0003 11.3215 20.9671 11.1536 20.9024 10.9969C20.8376 10.8402 20.7426 10.6978 20.6228 10.5779C20.503 10.458 20.3607 10.3629 20.204 10.298C20.0474 10.2332 19.8795 10.1999 19.71 10.2H19.643C19.3985 10.2011 19.1594 10.1286 18.9566 9.99199C18.7539 9.85539 18.5969 9.66097 18.506 9.434C18.485 9.38 18.463 9.327 18.441 9.274C18.3382 9.03107 18.3103 8.76298 18.3609 8.5041C18.4115 8.24521 18.5383 8.00735 18.725 7.821V7.821C18.9665 7.57913 19.1022 7.2513 19.1022 6.9095C19.1022 6.5677 18.9665 6.23987 18.725 5.998L18 5.278C17.7581 5.03649 17.4303 4.90084 17.0885 4.90084C16.7467 4.90084 16.4189 5.03649 16.177 5.278V5.278C15.9907 5.46469 15.7528 5.59147 15.4939 5.64207C15.235 5.69267 14.9669 5.66479 14.724 5.562L14.564 5.497C14.3374 5.40467 14.1436 5.2467 14.0074 5.04338C13.8713 4.84006 13.7991 4.60069 13.8 4.356V4.289C13.8 3.94714 13.6642 3.61927 13.4225 3.37754C13.1807 3.13581 12.8529 3 12.511 3H11.49C11.3206 2.99987 11.1529 3.03311 10.9964 3.09783C10.8399 3.16255 10.6977 3.25748 10.5779 3.37719C10.4581 3.49689 10.3631 3.63904 10.2982 3.79549C10.2334 3.95194 10.2 4.11964 10.2 4.289V4.356C10.2011 4.60048 10.1286 4.83963 9.99199 5.04239C9.85539 5.24515 9.66097 5.40215 9.434 5.493C9.38 5.515 9.327 5.536 9.274 5.559C9.03107 5.66179 8.76298 5.68967 8.5041 5.63907C8.24521 5.58847 8.00735 5.46169 7.821 5.275V5.275C7.57922 5.0341 7.25181 4.89883 6.9105 4.89883C6.56919 4.89883 6.24179 5.0341 6 5.275L5.275 6C5.03349 6.24187 4.89784 6.5697 4.89784 6.9115C4.89784 7.2533 5.03349 7.58113 5.275 7.823V7.823C5.46169 8.00935 5.58847 8.24721 5.63907 8.5061C5.68967 8.76498 5.66179 9.03307 5.559 9.276C5.536 9.33 5.515 9.383 5.494 9.437C5.40297 9.66405 5.24579 9.8585 5.04286 9.99509C4.83993 10.1317 4.60062 10.2041 4.356 10.203H4.289C3.94766 10.203 3.62025 10.3384 3.3786 10.5795C3.13695 10.8206 3.00079 11.1477 3 11.489V12.51C2.99987 12.6794 3.03311 12.8471 3.09783 13.0036C3.16255 13.1601 3.25748 13.3023 3.37719 13.4221C3.49689 13.5419 3.63904 13.6369 3.79549 13.7018C3.95194 13.7666 4.11964 13.8 4.289 13.8H4.356C4.60048 13.7989 4.83963 13.8714 5.04239 14.008C5.24515 14.1446 5.40215 14.339 5.493 14.566C5.514 14.62 5.536 14.673 5.558 14.726C5.66079 14.9689 5.68867 15.237 5.63807 15.4959C5.58747 15.7548 5.46069 15.9927 5.274 16.179V16.179C5.03249 16.4209 4.89684 16.7487 4.89684 17.0905C4.89684 17.4323 5.03249 17.7601 5.274 18.002L6 18.724C6.24187 18.9655 6.5697 19.1012 6.9115 19.1012C7.2533 19.1012 7.58113 18.9655 7.823 18.724V18.724C8.00935 18.5373 8.24721 18.4105 8.5061 18.3599C8.76498 18.3093 9.03307 18.3372 9.276 18.44L9.436 18.505C9.66313 18.5956 9.8577 18.7526 9.99433 18.9554C10.131 19.1582 10.2033 19.3975 10.202 19.642V19.709C10.2015 20.0505 10.3365 20.3783 10.5774 20.6203C10.8183 20.8624 11.1455 20.9989 11.487 21H12.508C12.6777 21.0004 12.8458 20.9673 13.0027 20.9026C13.1595 20.8378 13.3021 20.7428 13.4221 20.6228C13.5421 20.5029 13.6373 20.3604 13.7022 20.2036C13.767 20.0468 13.8003 19.8787 13.8 19.709V19.642C13.7989 19.3975 13.8714 19.1584 14.008 18.9556C14.1446 18.7529 14.339 18.5959 14.566 18.505L14.726 18.44C14.9697 18.3375 15.2384 18.3099 15.4979 18.3607C15.7574 18.4114 15.9958 18.5383 16.183 18.725H16.18Z" stroke="#D7DCDE" stroke-width="1.5" stroke-linecap="round" stroke-linejoin="round"/>
</svg>
