<svg width="24" height="24" viewBox="0 0 24 24" fill="none" xmlns="http://www.w3.org/2000/svg">
<path fill-rule="evenodd" clip-rule="evenodd" d="M0 12C0 14.3734 0.703788 16.6935 2.02236 18.6668C3.34094 20.6402 5.21509 22.1783 7.4078 23.0866C9.60051 23.9948 12.0133 24.2324 14.3411 23.7694C16.6689 23.3064 18.8071 22.1635 20.4853 20.4853C22.1635 18.8071 23.3064 16.6689 23.7694 14.3411C24.2324 12.0133 23.9948 9.60051 23.0866 7.4078C22.1783 5.21509 20.6402 3.34094 18.6668 2.02236C16.6935 0.703788 14.3734 0 12 0C8.8174 0 5.76515 1.26428 3.51472 3.51472C1.26428 5.76515 0 8.8174 0 12H0ZM9.8 17.5L10 14.441L15.568 9.42C15.812 9.203 15.515 9.098 15.191 9.294L8.324 13.626L5.357 12.7C4.716 12.5 4.712 12.064 5.501 11.747L17.06 7.29C17.588 7.05 18.098 7.417 17.896 8.225L15.928 17.5C15.791 18.159 15.392 18.317 14.84 18.012L11.84 15.797L10.4 17.2L10.386 17.213C10.3162 17.3018 10.2273 17.3738 10.1258 17.4235C10.0243 17.4732 9.91297 17.4993 9.8 17.5Z" fill="white" fill-opacity="0.7"/>
</svg>
