<svg width="24" height="24" viewBox="0 0 24 24" fill="none" xmlns="http://www.w3.org/2000/svg">
<path fill-rule="evenodd" clip-rule="evenodd" d="M12.1201 19.16C11.3597 19.2086 10.5977 19.0954 9.88435 18.8277C9.17102 18.56 8.52261 18.1439 7.98197 17.6071C7.44133 17.0702 7.02077 16.4248 6.74808 15.7133C6.47539 15.0019 6.35677 14.2407 6.40006 13.48V4.8H8.72006V13.54C8.68031 13.9974 8.74081 14.458 8.89733 14.8896C9.05385 15.3212 9.30264 15.7135 9.62633 16.0391C9.95003 16.3647 10.3408 16.6158 10.7715 16.7748C11.2022 16.9339 11.6624 16.9971 12.1201 16.96C12.5767 16.9966 13.0358 16.933 13.4652 16.7735C13.8947 16.614 14.284 16.3625 14.6061 16.0367C14.9281 15.7109 15.1749 15.3186 15.3294 14.8873C15.4838 14.456 15.5421 13.9962 15.5001 13.54V4.8H17.8201V13.48C17.8657 14.2395 17.7493 15.0001 17.4787 15.7112C17.2081 16.4223 16.7895 17.0679 16.2505 17.6049C15.7115 18.142 15.0645 18.5584 14.3524 18.8265C13.6404 19.0946 12.8794 19.2083 12.1201 19.16Z" fill="#373737"/>
<path opacity="0.3" d="M19 21H5C4.44772 21 4 21.4477 4 22C4 22.5523 4.44772 23 5 23H19C19.5523 23 20 22.5523 20 22C20 21.4477 19.5523 21 19 21Z" fill="#373737"/>
</svg>
