<svg width="24" height="25" viewBox="0 0 24 25" fill="none" xmlns="http://www.w3.org/2000/svg">
<path d="M4.5 13.25L3 14.75L1.5 13.25" stroke="#E62128" stroke-width="1.5" stroke-linecap="round" stroke-linejoin="round"/>
<path d="M19.5 11.75L21 10.25L22.5 11.75" stroke="#E62128" stroke-width="1.5" stroke-linecap="round" stroke-linejoin="round"/>
<path d="M19.3711 7.34489C18.178 5.62802 16.4237 4.38073 14.4103 3.81769C12.3968 3.25465 10.25 3.41108 8.33938 4.26005C6.42878 5.10903 4.87386 6.59744 3.94224 8.46913C3.01062 10.3408 2.76056 12.4787 3.23511 14.5149" stroke="#E62128" stroke-width="1.5" stroke-linecap="round" stroke-linejoin="round"/>
<path d="M4.62891 17.6551C5.82201 19.372 7.57627 20.6193 9.58976 21.1823C11.6033 21.7453 13.75 21.5889 15.6606 20.7399C17.5712 19.891 19.1262 18.4026 20.0578 16.5309C20.9894 14.6592 21.2395 12.5213 20.7649 10.4851" stroke="#E62128" stroke-width="1.5" stroke-linecap="round" stroke-linejoin="round"/>
</svg>
