<svg width="24" height="24" viewBox="0 0 24 24" fill="none" xmlns="http://www.w3.org/2000/svg">
<path d="M18.364 5.63596C19.6227 6.89463 20.4798 8.49828 20.8271 10.2441C21.1743 11.9899 20.9961 13.7995 20.3149 15.4441C19.6337 17.0886 18.4802 18.4942 17.0001 19.4831C15.5201 20.472 13.78 20.9999 12 20.9999C10.22 20.9999 8.47992 20.472 6.99988 19.4831C5.51984 18.4942 4.36629 17.0886 3.6851 15.4441C3.00391 13.7995 2.82567 11.9899 3.17293 10.2441C3.52019 8.49828 4.37734 6.89463 5.636 5.63596C6.47173 4.80022 7.46389 4.13727 8.55583 3.68497C9.64776 3.23267 10.8181 2.99988 12 2.99988C13.1819 2.99988 14.3522 3.23267 15.4442 3.68497C16.5361 4.13727 17.5283 4.80022 18.364 5.63596" stroke="#D7DCDE" stroke-width="1.5" stroke-linecap="round" stroke-linejoin="round"/>
<path d="M17.3071 19.257C16.9231 17.417 14.7001 16 12.0001 16C9.30012 16 7.07712 17.417 6.69312 19.257" stroke="#D7DCDE" stroke-width="1.5" stroke-linecap="round" stroke-linejoin="round"/>
<path d="M14.121 7.87898C14.5405 8.29856 14.8262 8.83311 14.9419 9.41504C15.0576 9.99697 14.9982 10.6001 14.7711 11.1483C14.544 11.6964 14.1595 12.1649 13.6662 12.4946C13.1728 12.8242 12.5928 13.0001 11.9995 13.0001C11.4062 13.0001 10.8262 12.8242 10.3329 12.4946C9.83952 12.1649 9.455 11.6964 9.22792 11.1483C9.00085 10.6001 8.94141 9.99697 9.05712 9.41504C9.17283 8.83311 9.45851 8.29856 9.87801 7.87898C10.1566 7.60035 10.4873 7.37933 10.8513 7.22853C11.2154 7.07774 11.6055 7.00012 11.9995 7.00012C12.3935 7.00012 12.7837 7.07774 13.1477 7.22853C13.5117 7.37933 13.8424 7.60035 14.121 7.87898" stroke="#D7DCDE" stroke-width="1.5" stroke-linecap="round" stroke-linejoin="round"/>
</svg>
