<svg width="32" height="32" viewBox="0 0 32 32" fill="none" xmlns="http://www.w3.org/2000/svg">
<path d="M16 28C9.36 28 4 22.628 4 16C4 9.36 9.372 4 16 4C22.628 4 28 9.372 28 16C28 22.628 22.628 28 16 28Z" stroke="white" stroke-width="1.5" stroke-linecap="round" stroke-linejoin="round"/>
<path d="M18.1211 10.2C19.2811 11.36 19.2811 13.2666 18.1211 14.44C16.9478 15.6 15.0411 15.6 13.8678 14.44C12.6945 13.2666 12.6945 11.36 13.8678 10.1866C15.0278 9.01331 16.9345 9.01331 18.1078 10.1866" stroke="white" stroke-width="1.5" stroke-linecap="round" stroke-linejoin="round"/>
<path d="M21.7614 22.0549C21.4547 20.2016 19.868 18.7749 17.9414 18.7749H14.048C12.1014 18.7749 10.5227 20.1936 10.228 22.0416" stroke="white" stroke-width="1.5" stroke-linecap="round" stroke-linejoin="round"/>
</svg>
