<svg width="24" height="24" viewBox="0 0 24 24" fill="none" xmlns="http://www.w3.org/2000/svg">
<path d="M3 18C3 15.79 4.79 14 7 14H11C13.2 14 15 15.79 15 18" stroke="#333333" stroke-width="1.5" stroke-linecap="round" stroke-linejoin="round"/>
<path d="M16 4.65088C17.38 4.65088 18.5 5.76088 18.5 7.15088C18.5 8.53088 17.38 9.65088 16 9.65088" stroke="#333333" stroke-width="1.5" stroke-linecap="round" stroke-linejoin="round"/>
<path d="M11.4 4.98992C12.72 6.30992 12.72 8.46992 11.4 9.78992C10.07 11.1099 7.91003 11.1099 6.59003 9.78992C5.26003 8.45992 5.26003 6.29992 6.59003 4.97992C7.91003 3.64992 10.07 3.64992 11.39 4.97992" stroke="#333333" stroke-width="1.5" stroke-linecap="round" stroke-linejoin="round"/>
<path d="M17 13C19.2 13 21 14.79 21 17" stroke="#333333" stroke-width="1.5" stroke-linecap="round" stroke-linejoin="round"/>
</svg>
