<svg width="32" height="32" viewBox="0 0 32 32" fill="none" xmlns="http://www.w3.org/2000/svg">
<path d="M3.71606 15.4881C3.71606 9.93906 3.71606 7.16406 5.44006 5.44006C7.16406 3.71606 9.93906 3.71606 15.4881 3.71606H16.5161C22.0651 3.71606 24.8401 3.71606 26.5641 5.44006C28.2881 7.16406 28.2881 9.94006 28.2881 15.4881V16.5161C28.2881 22.0651 28.2881 24.8401 26.5641 26.5641C24.8401 28.2881 22.0641 28.2881 16.5161 28.2881H15.4881C9.93906 28.2881 7.16406 28.2881 5.44006 26.5641C3.71606 24.8401 3.71606 22.0611 3.71606 16.5161V15.4881Z" fill="#157BFB"/>
<path d="M16.7145 21C11.2479 21 8.12992 17.2462 8 11H10.7383C10.8282 15.5846 12.8469 17.5265 14.4459 17.9269V11H17.0244V14.954C18.6034 14.7838 20.2622 12.982 20.8218 11H23.4003C22.9705 13.4424 21.1717 15.2442 19.8925 15.985C21.1717 16.5856 23.2205 18.1572 24 21H21.1617C20.5521 19.0981 19.0332 17.6266 17.0244 17.4264V21H16.7145Z" fill="white"/>
</svg>
