<svg width="25" height="25" viewBox="0 0 25 25" fill="none" xmlns="http://www.w3.org/2000/svg">
<path d="M13.0001 24.9618C10.2222 24.9632 7.53007 24.0005 5.38193 22.2391C3.23379 20.4777 1.76276 18.026 1.21982 15.3016C0.67688 12.5773 1.0956 9.74997 2.40439 7.29967C3.71318 4.84936 5.83033 2.92777 8.39658 1.86412C10.9628 0.800473 13.8192 0.659698 16.4776 1.46568C19.1361 2.27167 21.4321 3.9744 22.9757 6.28404C24.5192 8.59368 25.2147 11.3671 24.9425 14.1317C24.6702 16.8963 23.4479 19.482 21.4835 21.4461C20.3722 22.564 19.05 23.45 17.5938 24.0536C16.1377 24.6571 14.5763 24.9657 13.0001 24.9618V24.9618ZM14.3946 15.3075C14.7076 15.3075 15.0654 15.7075 15.4444 16.1395C15.6994 16.4541 15.99 16.7372 16.3116 16.9833C16.5717 17.1726 16.8828 17.2797 17.2042 17.2919C17.2415 17.2933 17.2791 17.2902 17.3155 17.2821L19.3292 17.2547H19.337C19.489 17.2387 19.8585 17.1763 19.9815 16.9403C20.0169 16.8467 20.0262 16.7441 20.0099 16.6454C19.9935 16.5467 19.9514 16.455 19.8878 16.3778C19.8878 16.3778 19.8879 16.372 19.8819 16.37C19.8786 16.3631 19.8752 16.3569 19.8712 16.3504C19.4563 15.7277 18.9572 15.1652 18.3888 14.6786L18.3526 14.6454C17.2846 13.6684 17.2848 13.6679 18.3048 12.3739C18.4498 12.1899 18.6205 11.9736 18.8165 11.7196C19.7165 10.5356 20.1162 9.7701 19.9972 9.4481C19.9292 9.2571 19.6383 9.21959 19.4063 9.21959C19.3063 9.21959 19.2341 9.2254 19.2061 9.2274L16.9356 9.24303C16.9356 9.24303 16.9102 9.24303 16.8722 9.24303C16.7927 9.24039 16.7135 9.25772 16.6427 9.29381C16.5588 9.35772 16.4912 9.44 16.4435 9.53404C16.208 10.1322 15.928 10.7123 15.6056 11.2684C14.9406 12.3794 14.4309 12.9676 14.1329 12.9676C14.0976 12.967 14.0635 12.9567 14.0333 12.9383C13.7093 12.7333 13.7244 12.1879 13.7384 11.7059V11.6258C13.7384 11.5598 13.7384 11.4984 13.7384 11.4364C13.7384 11.0674 13.7508 10.7496 13.7618 10.4676V10.4481C13.8008 9.5111 13.8192 9.0831 13.2472 8.9481C12.8994 8.86629 12.5416 8.83303 12.1847 8.84849H11.9063C11.3658 8.80696 10.8218 8.87161 10.3058 9.03795C10.0878 9.14295 9.92362 9.34867 9.93662 9.42467C9.93803 9.43324 9.94273 9.44048 9.94931 9.44615C9.95589 9.45182 9.96407 9.4558 9.97275 9.45592C10.2284 9.47766 10.4665 9.59487 10.6397 9.78404C10.7987 10.0956 10.8767 10.4422 10.8653 10.7919C10.8783 10.9919 10.9709 12.726 10.5519 12.952C10.5078 12.9765 10.4587 12.9893 10.4083 12.9891C10.0863 12.9891 9.64288 12.4688 8.92588 11.2528C8.62516 10.7251 8.35816 10.1793 8.12607 9.61803C8.12583 9.61403 8.12583 9.6103 8.12607 9.60631C8.08301 9.51043 8.01998 9.42511 7.94052 9.35631C7.8358 9.28993 7.71864 9.24435 7.59677 9.22154C7.58677 9.22154 7.58703 9.22154 7.58603 9.22154L5.43173 9.23912H5.42099C5.26448 9.23462 5.11189 9.28691 4.99033 9.3856C4.88433 9.5066 4.97956 9.76056 4.98056 9.76256C5.89585 11.8673 7.1078 13.8301 8.58017 15.5907C9.5361 16.6071 10.8521 17.2085 12.2462 17.2665H13.2364C13.3846 17.25 13.5236 17.1888 13.6358 17.0907C13.7187 16.9766 13.7619 16.8371 13.7589 16.6962C13.7589 16.6472 13.7589 15.5048 14.3019 15.3348C14.3311 15.3213 14.3618 15.3125 14.3936 15.3075H14.3946Z" fill="white" fill-opacity="0.7"/>
</svg>
