<svg width="24" height="24" viewBox="0 0 24 24" fill="none" xmlns="http://www.w3.org/2000/svg">
<path fill-rule="evenodd" clip-rule="evenodd" d="M0 12C0 14.3734 0.703788 16.6935 2.02236 18.6668C3.34094 20.6402 5.21509 22.1783 7.4078 23.0866C9.60051 23.9948 12.0133 24.2324 14.3411 23.7694C16.6689 23.3064 18.8071 22.1635 20.4853 20.4853C22.1635 18.8071 23.3064 16.6689 23.7694 14.3411C24.2324 12.0133 23.9948 9.60051 23.0866 7.4078C22.1783 5.21509 20.6402 3.34094 18.6668 2.02236C16.6935 0.703788 14.3734 0 12 0C8.8174 0 5.76516 1.26428 3.51472 3.51472C1.26428 5.76516 0 8.8174 0 12H0ZM19.531 11.541C19.5278 13.4317 18.7756 15.244 17.4391 16.5813C16.1026 17.9186 14.2907 18.6718 12.4 18.676V18.676C11.2087 18.6761 10.0363 18.3777 8.99 17.808L5.2 18.8L6.212 15.1C5.6649 14.1517 5.34331 13.0902 5.27211 11.9977C5.20091 10.9052 5.382 9.81098 5.80138 8.79967C6.22075 7.78836 6.86717 6.88709 7.69062 6.16559C8.51406 5.44409 9.49245 4.9217 10.5501 4.63885C11.6077 4.35599 12.7163 4.32025 13.79 4.53439C14.8636 4.74853 15.8736 5.20681 16.7419 5.87377C17.6101 6.54073 18.3132 7.3985 18.7968 8.38069C19.2805 9.36289 19.5317 10.4432 19.531 11.538V11.541Z" fill="white" fill-opacity="0.7"/>
<path fill-rule="evenodd" clip-rule="evenodd" d="M15.4069 12.8359C15.4915 12.8645 15.5673 12.9145 15.6269 12.9809C15.6708 13.2393 15.6381 13.5049 15.5329 13.7449C15.4147 13.9402 15.2574 14.1088 15.0708 14.2403C14.8843 14.3718 14.6725 14.4632 14.4489 14.5089C14.1115 14.5665 13.7653 14.5446 13.4379 14.4449C13.1271 14.3485 12.8217 14.2357 12.5229 14.1069C11.4267 13.5604 10.4911 12.7386 9.8079 11.7219L9.7799 11.6819C9.40514 11.2043 9.17786 10.6278 9.1259 10.0229C9.12069 9.78052 9.16511 9.53962 9.25642 9.31503C9.34774 9.09044 9.48402 8.88689 9.6569 8.71691L9.6879 8.68291C9.74161 8.62189 9.80736 8.57262 9.88101 8.5382C9.95466 8.50379 10.0346 8.48496 10.1159 8.48291C10.2229 8.48291 10.3299 8.48291 10.4239 8.48891H10.4599C10.5539 8.48891 10.6699 8.48891 10.7849 8.76391C10.8289 8.86991 10.8939 9.02791 10.9619 9.19391C11.0999 9.52991 11.2529 9.90191 11.2799 9.95591C11.3049 9.99812 11.3191 10.0458 11.3214 10.0948C11.3236 10.1438 11.3139 10.1926 11.2929 10.2369L11.2699 10.2829C11.2348 10.3632 11.1883 10.4379 11.1319 10.5049L11.0499 10.6049C10.9949 10.6719 10.9399 10.7399 10.8909 10.7869C10.8109 10.8669 10.7269 10.9539 10.8209 11.1149C11.062 11.5276 11.363 11.9024 11.7139 12.2269C12.0636 12.542 12.4643 12.7953 12.8989 12.9759C12.9429 12.9949 12.9789 13.0109 13.0049 13.0239C13.1649 13.1039 13.2589 13.0909 13.3529 12.9839C13.4469 12.8769 13.7529 12.5149 13.8609 12.3539C13.9689 12.1929 14.0749 12.2199 14.2219 12.2739C14.3689 12.3279 15.1589 12.7159 15.3219 12.7959L15.4069 12.8359Z" fill="#FDFDFD" fill-opacity="0.69"/>
</svg>
