<svg width="24" height="24" viewBox="0 0 24 24" fill="none" xmlns="http://www.w3.org/2000/svg">
<path opacity="0.3" fill-rule="evenodd" clip-rule="evenodd" d="M5.223 5H18.837C19.5851 5.00011 20.3062 5.27976 20.8588 5.78408C21.4114 6.2884 21.7557 6.98099 21.824 7.726C21.9413 9.002 22 10.401 22 11.923C22 13.705 21.9197 15.487 21.759 17.269C21.6918 18.0151 21.348 18.709 20.795 19.2144C20.2421 19.7198 19.5201 20 18.771 20H5.223C4.47581 20 3.7555 19.7212 3.20304 19.2181C2.65058 18.7151 2.30574 18.0239 2.236 17.28C2.07867 15.604 2 14.0107 2 12.5C2 10.9893 2.07867 9.396 2.236 7.72C2.30574 6.97607 2.65058 6.28494 3.20304 5.78186C3.7555 5.27878 4.47581 4.99998 5.223 5Z" fill="#373737"/>
<path fill-rule="evenodd" clip-rule="evenodd" d="M10.869 15.913L15.759 12.92C15.8177 12.8876 15.8687 12.843 15.9086 12.7891C15.9484 12.7352 15.9761 12.6733 15.9899 12.6077C16.0037 12.5421 16.0031 12.4744 15.9883 12.409C15.9735 12.3436 15.9448 12.2822 15.904 12.229C15.8644 12.1775 15.8155 12.1338 15.76 12.1L10.87 9.087C10.7473 9.01243 10.602 8.98434 10.4603 9.00783C10.3187 9.03131 10.1901 9.10482 10.098 9.215C10.0344 9.29531 9.99918 9.39451 9.99805 9.497V15.503C10.0055 15.6428 10.0682 15.774 10.1722 15.8677C10.2762 15.9614 10.4132 16.0101 10.553 16.003C10.6647 16.003 10.7741 15.9718 10.869 15.913Z" fill="#373737"/>
</svg>
