<svg width="24" height="24" viewBox="0 0 24 24" fill="none" xmlns="http://www.w3.org/2000/svg">
<path d="M18.222 19.5H5.778C5.54447 19.5001 5.31321 19.4542 5.09743 19.3649C4.88166 19.2756 4.6856 19.1447 4.52047 18.9795C4.35534 18.8144 4.22438 18.6183 4.13507 18.4026C4.04577 18.1868 3.99987 17.9555 4 17.722V5.278C3.99987 5.04447 4.04577 4.81321 4.13507 4.59743C4.22438 4.38166 4.35534 4.1856 4.52047 4.02047C4.6856 3.85534 4.88166 3.72438 5.09743 3.63507C5.31321 3.54577 5.54447 3.49987 5.778 3.5H18.222C18.4555 3.49987 18.6868 3.54577 18.9026 3.63507C19.1183 3.72438 19.3144 3.85534 19.4795 4.02047C19.6447 4.1856 19.7756 4.38166 19.8649 4.59743C19.9542 4.81321 20.0001 5.04447 20 5.278V17.722C20.0001 17.9555 19.9542 18.1868 19.8649 18.4026C19.7756 18.6183 19.6447 18.8144 19.4795 18.9795C19.3144 19.1447 19.1183 19.2756 18.9026 19.3649C18.6868 19.4542 18.4555 19.5001 18.222 19.5V19.5Z" stroke="#D7DCDE" stroke-width="1.5" stroke-linecap="round" stroke-linejoin="round"/>
<path d="M15 3.5V8.5C15 8.76522 14.8946 9.01957 14.7071 9.20711C14.5196 9.39464 14.2652 9.5 14 9.5H10C9.73478 9.5 9.48043 9.39464 9.29289 9.20711C9.10536 9.01957 9 8.76522 9 8.5V3.5" stroke="#D7DCDE" stroke-width="1.5" stroke-linecap="round" stroke-linejoin="round"/>
<path d="M15 13.5C15 13.7652 14.8946 14.0196 14.7071 14.2071C14.5196 14.3946 14.2652 14.5 14 14.5H10C9.73478 14.5 9.48043 14.3946 9.29289 14.2071C9.10536 14.0196 9 13.7652 9 13.5" stroke="#D7DCDE" stroke-width="1.5" stroke-linecap="round" stroke-linejoin="round"/>
</svg>
